# xmcd CD database file generated by Grip 3.3.1
# 
# Track frame offsets:
#       187
#       19162
#       29547
#       60057
#       82912
#       99782
#       122050
#       138287
#       160162
#       185580
#       211595
#       222975
#       266202
# 
# Disc length: 3743 seconds
# 
# Revision: 1
# Processed by: cddbd v1.5.2PL0 Copyright (c) Steve Scherf et al.
# Submitted via: Grip 3.3.1
# 
DISCID=a60e9d0d
DTITLE=Sofia National Opera Orchestra - Mussorgski - Khovanshchina 2
DYEAR=1978
DGENRE=Classical
TTITLE0=Act 4, Tableau 1, Scene 1: Vozle recki, na luzocke noceval ja (Iv
TTITLE0=an Khovansky/Peasant Women)
TTITLE1=Act 4, Tableau 1, Scene 2: Ty zacem? Osmelilsja vojti? (Ivan Khov
TTITLE1=ansky/Varsonofyev/Peasant Women)
TTITLE2=Act 4, Tableau 1, Scene 3: Dance of the Persian Slaves (Orchestra
TTITLE2=)
TTITLE3=Act 4, Tableau 1, Scene 4: Ty zacem... K tebe, knajz' (Ivan Khova
TTITLE3=nsky/Varsonofyev/Peasant Women/Shaklovity)
TTITLE4=Act 4, Tableau 2, Scene 5: Gijan'-ko! Vezut (People of Moscow)
TTITLE5=Act 4, Tableau 2, Scene 6: Sversiloja resenie sud'by (Dosifey/Mar
TTITLE5=fa)
TTITLE6=Act 4, Tableau 2, Scene 7: Ah, ty zdes', zlodejka! (Marfa/Andrey 
TTITLE6=Khovanski)
TTITLE7=Act 4, Tableau 2, Scene 8: Gospodi, bose moj! Vse pogiblo (Marfa/
TTITLE7=Andrey Khovanski/Musketeers/Streshnev)
TTITLE8=Act 5, Scene 1: Zdes', na etom meste svatje (Dosifey)
TTITLE9=Act 5, Scene 2: Bratija! (Dosifey/Marfa/Old Believers)
TTITLE10=Act 5, Scene 2: Brag celovekow, Knjaz' mira sego vassta! (Chorus 
TTITLE10=of Old Believers)
TTITLE11=Act 5, Scene 3: Podviglis' (Marfa/Andrey Khovanski/Dosifey)
TTITLE12=Act 5, Scene 4: Finale: Gospodi slavy, grjadi vo slavu tvoju! (Ma
TTITLE12=rfa/Andrey Khovanski/Dosifey/Old Believers)
EXTD=
EXTT0=
EXTT1=
EXTT2=
EXTT3=
EXTT4=
EXTT5=
EXTT6=
EXTT7=
EXTT8=
EXTT9=
EXTT10=
EXTT11=
EXTT12=
PLAYORDER=
